<svg width="357" height="210" viewBox="0 0 357 210" fill="none" xmlns="http://www.w3.org/2000/svg">
<g clip-path="url(#clip0_703_16)">
<path d="M301.397 163.557H57.798C54.8202 163.554 51.9653 162.369 49.8596 160.262C47.754 158.155 46.5695 155.299 46.5662 152.32V34.7389C46.5695 31.7597 47.754 28.9034 49.8596 26.7967C51.9653 24.6901 54.8202 23.5051 57.798 23.5017H301.397C304.374 23.5051 307.229 24.6901 309.335 26.7968C311.441 28.9034 312.625 31.7597 312.628 34.7389V152.32C312.625 155.299 311.441 158.155 309.335 160.262C307.229 162.369 304.374 163.554 301.397 163.557V163.557ZM57.798 24.3454C55.0437 24.3485 52.4032 25.4445 50.4556 27.393C48.508 29.3415 47.4126 31.9833 47.4095 34.7389V152.32C47.4126 155.075 48.508 157.717 50.4556 159.666C52.4032 161.614 55.0437 162.71 57.798 162.713H301.397C304.151 162.71 306.791 161.614 308.739 159.666C310.687 157.717 311.782 155.075 311.785 152.32V34.7389C311.782 31.9833 310.687 29.3415 308.739 27.393C306.791 25.4445 304.151 24.3485 301.397 24.3454H57.798Z" fill="#2E004D"/>
<path d="M2.22084e-06 139.681C-0.000194298 139.747 0.0126533 139.812 0.0378014 139.873C0.0629494 139.934 0.0999055 139.99 0.146541 140.036C0.193176 140.083 0.248568 140.12 0.309537 140.145C0.370506 140.17 0.435845 140.183 0.501795 140.183H356.498C356.631 140.183 356.759 140.13 356.853 140.036C356.947 139.942 357 139.814 357 139.681C357 139.548 356.947 139.42 356.853 139.326C356.759 139.232 356.631 139.179 356.498 139.179H0.501769C0.435822 139.179 0.370489 139.191 0.309524 139.217C0.248559 139.242 0.193166 139.279 0.146534 139.325C0.0999022 139.372 0.0629486 139.428 0.0378014 139.489C0.0126541 139.55 -0.000192043 139.615 2.22084e-06 139.681Z" fill="#5E3280"/>
<path d="M121.684 130.812C121.442 130.823 121.202 130.759 120.996 130.629C120.791 130.499 120.631 130.31 120.538 130.086C120.444 129.861 120.421 129.614 120.473 129.377C120.525 129.14 120.648 128.924 120.826 128.759L120.907 128.436C120.897 128.411 120.886 128.385 120.875 128.359C120.631 127.782 120.221 127.29 119.698 126.944C119.176 126.599 118.562 126.416 117.936 126.418C117.309 126.421 116.697 126.608 116.177 126.957C115.657 127.307 115.251 127.802 115.011 128.381C114.052 130.692 112.831 133.007 112.53 135.45C112.398 136.53 112.454 137.625 112.695 138.686C110.443 133.77 109.273 128.427 109.266 123.019C109.265 121.662 109.341 120.306 109.491 118.957C109.616 117.851 109.789 116.754 110.01 115.664C111.218 109.75 113.81 104.208 117.574 99.4911C119.396 98.4966 120.869 96.9673 121.795 95.1092C122.131 94.4413 122.368 93.7283 122.5 92.9924C122.294 93.0194 121.725 89.8879 121.88 89.6958C121.593 89.261 121.081 89.0449 120.768 88.6206C119.212 86.5104 117.069 86.8789 115.95 89.7464C113.56 90.9533 113.537 92.9549 115.003 94.88C115.936 96.1047 116.065 97.7619 116.883 99.0731C116.799 99.181 116.711 99.2855 116.627 99.3934C115.088 101.374 113.746 103.501 112.621 105.744C112.894 103.231 112.568 100.69 111.668 98.3282C110.756 96.1273 109.047 94.2737 107.542 92.371C105.734 90.0856 102.026 91.083 101.708 93.9801C101.705 94.0082 101.702 94.0362 101.699 94.0643C101.922 94.1904 102.141 94.3244 102.355 94.4661C102.624 94.6459 102.833 94.9028 102.953 95.2031C103.074 95.5035 103.101 95.8333 103.031 96.1493C102.961 96.4653 102.797 96.7528 102.561 96.9741C102.325 97.1954 102.028 97.3402 101.708 97.3895L101.675 97.3945C101.755 98.2007 101.896 98.9996 102.096 99.7844C100.165 107.255 104.334 109.977 110.287 110.099C110.418 110.166 110.546 110.234 110.677 110.298C109.547 113.502 108.838 116.84 108.568 120.228C108.416 122.226 108.425 124.234 108.595 126.231L108.585 126.16C108.154 123.94 106.97 121.936 105.233 120.487C102.653 118.367 99.0084 117.586 96.2253 115.882C95.9295 115.692 95.5856 115.591 95.2341 115.59C94.8826 115.589 94.5382 115.689 94.2415 115.877C93.9449 116.066 93.7082 116.335 93.5596 116.654C93.411 116.973 93.3565 117.327 93.4027 117.676C93.4064 117.701 93.4102 117.726 93.4141 117.75C93.829 117.919 94.2329 118.114 94.6236 118.333C94.8472 118.46 95.066 118.594 95.2801 118.735C95.5491 118.915 95.7575 119.172 95.8781 119.472C95.9987 119.773 96.0257 120.102 95.9557 120.418C95.8858 120.734 95.722 121.022 95.4859 121.243C95.2499 121.465 94.9525 121.609 94.6327 121.659L94.6 121.664C94.5764 121.667 94.5562 121.67 94.5326 121.674C95.2415 123.367 96.2364 124.926 97.4738 126.282C98.6812 132.804 103.867 133.422 109.414 131.523H109.417C110.026 134.169 110.908 136.745 112.049 139.208H121.448C121.482 139.104 121.512 138.996 121.543 138.891C120.673 138.946 119.799 138.894 118.942 138.736C119.639 137.88 120.337 137.017 121.034 136.161C121.05 136.145 121.064 136.128 121.078 136.111C121.432 135.673 121.789 135.238 122.142 134.799L122.143 134.799C122.162 133.456 122.007 132.116 121.684 130.812L121.684 130.812Z" fill="#5E3280"/>
<path d="M74.7594 125.594C74.3663 125.612 73.9771 125.509 73.6446 125.298C73.3121 125.087 73.0523 124.78 72.9005 124.416C72.7487 124.053 72.7121 123.652 72.7958 123.267C72.8795 122.882 73.0794 122.533 73.3684 122.265C73.4168 122.073 73.4515 121.935 73.4999 121.742C73.4826 121.7 73.4652 121.659 73.4476 121.617C73.0516 120.681 72.388 119.883 71.5401 119.323C70.6922 118.763 69.6979 118.467 68.682 118.471C67.6662 118.474 66.6741 118.778 65.8304 119.344C64.9867 119.91 64.329 120.713 63.9399 121.652C62.3849 125.399 60.405 129.153 59.9176 133.114C59.7029 134.866 59.7934 136.641 60.1852 138.361C56.5329 130.39 54.6363 121.727 54.6241 112.958C54.6233 110.758 54.7455 108.559 54.9901 106.372C55.1923 104.58 55.4727 102.8 55.8314 101.033C57.789 91.4443 61.992 82.4574 68.0953 74.8098C71.0493 73.1972 73.4382 70.7175 74.9402 67.7048C75.4843 66.6218 75.8688 65.4657 76.0819 64.2725C75.7487 64.3162 74.8254 59.2389 75.0767 58.9274C74.6124 58.2223 73.7812 57.8719 73.274 57.1839C70.7517 53.7625 67.2765 54.3599 65.4622 59.0094C61.5867 60.9663 61.5492 64.2117 63.9272 67.3331C65.4401 69.319 65.648 72.006 66.9755 74.132C66.8388 74.3069 66.6968 74.4764 66.5603 74.6513C64.0638 77.863 61.8879 81.3118 60.0638 84.9481C60.5074 80.8743 59.978 76.7534 58.5191 72.9242C57.0405 69.3556 54.2691 66.3501 51.8286 63.2651C48.8971 59.5594 42.8858 61.1766 42.3694 65.8741C42.3644 65.9196 42.3595 65.9651 42.3547 66.0105C42.7172 66.2151 43.0721 66.4323 43.4193 66.662C43.8554 66.9536 44.1934 67.3701 44.3889 67.8571C44.5843 68.3441 44.6282 68.8788 44.5148 69.3912C44.4013 69.9036 44.1358 70.3697 43.753 70.7285C43.3702 71.0874 42.888 71.3221 42.3696 71.4021L42.3165 71.4103C42.4456 72.7174 42.6739 74.0128 42.9993 75.2853C39.8684 87.3991 46.6278 91.8111 56.2793 92.0093C56.4924 92.1186 56.7 92.2279 56.913 92.3318C55.0804 97.5278 53.9309 102.94 53.4933 108.433C53.2456 111.673 53.2603 114.929 53.5371 118.167L53.5206 118.052C52.8214 114.451 50.9015 111.202 48.0852 108.854C43.9023 105.416 37.9926 104.15 33.48 101.387C31.3078 100.057 28.5242 101.776 28.9034 104.295C28.9094 104.335 28.9156 104.376 28.9218 104.416C29.5945 104.69 30.2495 105.006 30.8829 105.361C31.2454 105.566 31.6002 105.783 31.9474 106.013C32.3836 106.304 32.7216 106.721 32.917 107.208C33.1125 107.695 33.1564 108.23 33.0429 108.742C32.9295 109.254 32.664 109.72 32.2812 110.079C31.8984 110.438 31.4162 110.673 30.8978 110.753L30.8446 110.761C30.8064 110.767 30.7736 110.772 30.7354 110.777C31.8848 113.523 33.498 116.05 35.5044 118.249C37.4621 128.823 45.8703 129.827 54.8645 126.747H54.8699C55.8568 131.038 57.2866 135.214 59.1364 139.208H74.3775C74.4321 139.039 74.4813 138.864 74.5305 138.695C73.1197 138.783 71.7034 138.699 70.3132 138.443C71.444 137.055 72.5747 135.656 73.7056 134.268C73.7308 134.242 73.7545 134.214 73.7766 134.186C74.3502 133.475 74.9292 132.77 75.5028 132.06L75.5031 132.059C75.5337 129.881 75.2839 127.708 74.7599 125.594L74.7594 125.594Z" fill="#5E3280"/>
<path d="M283.346 7.61046C282.322 -0.23592 264.232 0.264607 262.524 7.64677C261.618 7.0798 259.313 7.47224 258.454 8.12393C257.594 8.77562 257.043 9.73366 256.504 10.6637C255.767 11.9554 255.004 13.2933 254.841 14.7744C254.671 16.2526 255.252 17.9271 256.591 18.5853C257.654 19.1099 259.992 18.7557 261.16 18.5208C261.975 18.3587 262.66 18.2167 263.24 18.0774C263.435 17.1587 263.301 16.2005 262.86 15.3711C263.329 15.4644 263.772 15.6604 264.157 15.9451C264.542 16.2298 264.859 16.5961 265.085 17.0178C265.177 17.1945 268.491 42.1542 268.491 42.1542C269.397 42.2634 270.311 42.2863 271.221 42.2224C271.786 39.1506 271.889 36.0115 271.526 32.9093C272.486 34.6824 273.245 36.5571 273.79 38.4985C274.102 39.5843 274.359 40.6854 274.558 41.7975C282.446 40.3219 293.108 35.2393 295.053 26.6092C295.043 26.5814 295.032 26.5535 295.021 26.5257C294.915 26.262 294.903 25.9695 294.989 25.6983C295.075 25.4271 295.252 25.1941 295.49 25.0392C295.728 24.8842 296.013 24.8171 296.296 24.8491C296.578 24.8812 296.841 25.0105 297.038 25.2149C297.276 25.4598 297.488 25.6691 297.667 25.8312C296.976 20.3199 292.797 15.3605 283.346 7.61046Z" fill="#3C1F52"/>
<path d="M168.179 199.776L163.757 197.463L170.769 178.917L177.296 182.331L168.179 199.776Z" fill="#C997EE"/>
<path d="M150.336 199.552C150.062 200.077 150.008 200.689 150.185 201.254C150.361 201.818 150.755 202.29 151.279 202.565L160.071 207.163L163.222 204.821L162.177 208.262L165.493 210L170.405 198.33L169.285 197.659L164.724 194.91L163.251 194.027L161.596 197.193L152.039 198.372C151.68 198.416 151.338 198.546 151.042 198.752C150.745 198.958 150.503 199.232 150.336 199.552V199.552Z" fill="#5E3280"/>
<path d="M163.648 131.501L160.432 127.684L173.945 113.179L178.692 118.812L163.648 131.501Z" fill="#C997EE"/>
<path d="M147.221 124.53C146.769 124.912 146.487 125.458 146.436 126.047C146.386 126.637 146.572 127.223 146.952 127.676L153.348 135.264L157.151 134.291L154.88 137.08L157.291 139.945L166.256 131.007L165.474 129.962L162.294 125.689L161.265 124.312L158.535 126.615L149.244 124.083C148.895 123.988 148.529 123.979 148.177 124.057C147.825 124.135 147.497 124.297 147.221 124.53Z" fill="#5E3280"/>
<path d="M305.5 117.198C305.5 117.198 319.156 146.441 262.606 138.561C262.606 138.561 232.477 105.155 233.347 101.136C233.347 101.136 220.524 88.0997 221.152 87.8624C221.779 87.6251 222.166 87.1096 221.129 87.1564C220.092 87.2032 220.092 85.659 220.092 85.659C220.092 85.659 196.918 110.803 177.404 123.28L170.658 115.686C170.658 115.686 173.289 107.452 174.554 107.452C175.819 107.452 176.255 107.756 176.459 106.128C176.662 104.499 175.655 103.101 177.002 102.956C178.349 102.812 206.266 70.1689 206.266 70.1689C206.266 70.1689 209.278 59.4172 218.48 61.4983C227.682 63.5794 275.5 102.475 275.5 102.475L305.5 117.198Z" fill="#9263B5"/>
<path d="M282.472 139.509L207.763 138.888L175.296 190.354L166.121 185.495L168.155 184.636C168.155 184.636 167.539 177.483 168.293 175.672C169.048 173.861 171.292 174.406 171.292 174.406L190.221 130.732C191.526 126.855 194.091 123.527 197.506 121.278C200.921 119.029 204.991 117.987 209.066 118.32C224.729 116.035 250.154 117.861 276.569 120.103L282.472 139.509Z" fill="#9263B5"/>
<path d="M239.218 51.9188C240.64 52.1369 241.921 52.9015 242.788 54.05C243.655 55.1985 244.04 56.6402 243.861 58.0683C243.82 58.358 243.755 58.6439 243.667 58.9229L259.018 70.5726L255.85 80.4456L236.546 62.2123C235.418 61.7572 234.472 60.9413 233.856 59.8918C233.24 58.8424 232.989 57.6185 233.141 56.4112C233.235 55.725 233.462 55.064 233.811 54.4658C234.16 53.8676 234.623 53.344 235.174 52.9248C235.725 52.5057 236.353 52.1992 237.022 52.0229C237.691 51.8466 238.389 51.8039 239.075 51.8973C239.123 51.9038 239.17 51.911 239.218 51.9188Z" fill="#C997EE"/>
<path d="M306.941 52.646L301.421 67.9339L279.837 98.4508C279.837 98.4508 279.66 98.3749 279.339 98.2399C277.484 97.4383 270.746 94.4938 264.409 91.1485C258.459 88.0057 252.855 84.5085 251.987 82.104C251.894 81.8509 251.81 81.6062 251.734 81.37V81.3657C251.329 80.1413 251.076 78.8719 250.979 77.5859C250.907 76.5946 250.971 76.063 250.836 75.9998C250.73 75.9534 250.511 76.1812 250.026 76.6958C249.992 76.7296 249.963 76.7633 249.929 76.7929C248.175 78.552 246.02 78.3242 246.547 77.4889C247.087 76.6325 246.805 76.6494 246.012 75.7551C245.422 75.0886 243.503 72.4815 242.559 71.1949C242.234 70.7519 242.027 70.4651 242.027 70.4651L242.352 69.9546L243.25 68.5456L247.521 61.8466L247.758 61.4796C247.758 61.4796 256.536 63.5087 257.704 65.4366C258.877 67.3644 255.938 67.3011 258.877 67.3644C261.815 67.4277 264.813 63.4285 262.667 67.4066C260.521 71.3805 261.086 72.7684 263.742 72.1398C264.822 71.8825 266.53 72.6967 268.174 73.7513V73.7555C269.202 74.424 270.195 75.1463 271.147 75.9196C272.163 76.738 272.85 77.3581 272.85 77.3581L289.522 43.517L291.369 39.771C291.932 38.6311 292.716 37.6149 293.676 36.7819C294.636 35.949 295.753 35.3159 296.96 34.9197L297.538 35.9279C301.134 41.2274 304.28 46.8197 306.941 52.646V52.646Z" fill="#5E3280"/>
<path d="M307.864 101.168C312.974 102.357 307.538 139.575 301.446 139.691C257.173 140.535 270.653 115.684 268.279 113.304C265.905 110.921 263.763 112.629 265.905 108.921C267.466 106.221 269.78 106.622 269.814 105.108C269.831 104.542 269.532 103.716 268.756 102.357C265.905 97.3624 265.905 95.8733 265.905 95.8733C265.195 94.3735 264.691 92.784 264.409 91.1485C263.946 88.7167 263.889 86.225 264.24 83.7745C264.775 80.1797 266.12 76.7537 268.174 73.7555V73.7513C268.389 73.4307 268.612 73.1059 268.849 72.7853C269.384 72.0554 272.353 72.1947 272.353 72.1947L278.677 45.6179L275.017 35.021L292.351 26.8961L296.96 34.9197L297.538 35.9279C301.134 41.2274 304.28 46.8197 306.941 52.646C309.5 58.3452 311.604 64.673 311.68 70.1782C311.882 84.5339 309.407 88.803 309.407 88.803C309.407 88.803 315.416 93.2958 312.409 96.042C309.407 98.7925 302.754 99.9779 307.864 101.168Z" fill="#5E3280"/>
<path d="M229.336 48.4223L226.507 50.5718C225.949 50.9992 225.582 51.6307 225.488 52.328C225.394 53.0253 225.58 53.7315 226.005 54.2919L232.817 63.2494L236.839 68.5341C237.265 69.0921 237.896 69.4583 238.591 69.5524C239.287 69.6465 239.992 69.4608 240.551 69.0361L243.383 66.884C243.939 66.4554 244.304 65.8243 244.397 65.128C244.491 64.4318 244.306 63.7268 243.882 63.1665L243.465 62.6145L235.213 51.7678L233.048 48.9244C232.837 48.6474 232.574 48.4147 232.274 48.2396C231.973 48.0645 231.641 47.9503 231.296 47.9037C230.951 47.8571 230.601 47.8789 230.264 47.9679C229.928 48.0569 229.612 48.2113 229.336 48.4223Z" fill="#34194E"/>
<path d="M230.815 48.2598L227.768 50.3863C227.499 50.562 227.271 50.7928 227.098 51.0634C226.925 51.3339 226.811 51.6381 226.764 51.9558C226.717 52.2736 226.738 52.5977 226.825 52.9067C226.913 53.2158 227.065 53.5028 227.271 53.7489L231.259 58.5563L233.384 61.1173L234.802 62.8259L237.973 66.6484C238.422 67.1612 239.043 67.4911 239.719 67.5752C240.395 67.6593 241.078 67.4917 241.638 67.1044L243.921 65.5111L244.681 64.9811C245.059 64.7285 245.355 64.3696 245.53 63.9494C245.706 63.5293 245.753 63.0667 245.667 62.6197C245.59 62.2482 245.422 61.9017 245.178 61.6116L235.808 50.3148L234.48 48.7159C234.032 48.2023 233.41 47.8719 232.734 47.7878C232.058 47.7037 231.375 47.8717 230.815 48.2598V48.2598Z" fill="#F2F2F2"/>
<path d="M232.762 60.1332C234.184 60.3513 235.465 61.1159 236.332 62.2644C237.199 63.4129 237.584 64.8546 237.405 66.2827C237.364 66.5725 237.299 66.8583 237.211 67.1373L252.562 78.787L249.394 88.66L230.09 70.4267C228.961 69.9716 228.016 69.1557 227.4 68.1063C226.784 67.0568 226.533 65.833 226.685 64.6256C226.778 63.9394 227.006 63.2784 227.355 62.6802C227.703 62.082 228.166 61.5584 228.717 61.1392C229.268 60.7201 229.896 60.4136 230.566 60.2373C231.235 60.061 231.933 60.0183 232.618 60.1117C232.666 60.1182 232.714 60.1254 232.762 60.1332Z" fill="#C997EE"/>
<path d="M295.37 42.8561C296.712 43.1294 297.979 43.6886 299.086 44.4957C300.193 45.3028 301.112 46.3388 301.783 47.5334C302.453 48.7279 302.859 50.0529 302.972 51.4183C303.085 52.7836 302.903 54.1573 302.438 55.4459L294.967 76.1474L273.379 106.667C273.379 106.667 247.489 95.7261 245.529 90.3183C243.569 84.9105 245.339 83.0445 243.569 84.9105C241.799 86.7765 239.555 86.5553 240.092 85.7014C240.629 84.8475 240.347 84.8657 239.555 83.9711C238.764 83.0766 235.571 78.6808 235.571 78.6808L241.301 69.6948C241.301 69.6948 250.08 71.7224 251.25 73.6515C252.419 75.5806 249.48 75.5175 252.419 75.5806C255.359 75.6437 258.358 71.643 256.211 75.6199C254.063 79.5969 254.629 80.9834 257.286 80.3532C259.943 79.723 266.392 85.5733 266.392 85.5733L284.914 47.9864C285.846 46.0958 287.377 44.5671 289.269 43.639C291.16 42.7108 293.306 42.4355 295.37 42.8561Z" fill="#5E3280"/>
<path d="M284.324 30.3947C289.691 25.0254 289.691 16.32 284.324 10.9506C278.957 5.58127 270.256 5.58127 264.889 10.9506C259.522 16.32 259.522 25.0254 264.889 30.3947C270.256 35.7641 278.957 35.7641 284.324 30.3947Z" fill="#C997EE"/>
<path d="M290.676 5.69432C289.653 -2.15206 271.563 -1.65153 269.855 5.73063C268.949 5.16366 266.644 5.5561 265.784 6.20779C264.925 6.85948 264.374 7.81752 263.834 8.74752C263.098 10.0392 257.945 14.4093 257.173 13.1352C255.435 10.2678 252.028 16.5335 254.643 20.7286C255.27 21.7344 267.389 20.1197 268.557 19.8849C269.373 19.7227 267.977 20.0241 268.557 19.8849C268.745 18.9748 270.638 14.2727 270.191 13.455C270.66 13.5482 271.103 13.7442 271.488 14.0289C271.872 14.3136 272.189 14.68 272.416 15.1017C272.507 15.2783 275.821 40.238 275.821 40.238C276.727 40.3473 277.642 40.3701 278.552 40.3062C279.117 37.2344 279.22 34.0954 278.857 30.9931C279.817 32.7663 280.576 34.6409 281.121 36.5823C281.433 37.6682 281.689 38.7693 281.889 39.8813C289.776 38.4057 300.439 33.3232 302.384 24.6931C291.748 21.1504 300.128 13.4443 290.676 5.69432Z" fill="#3C1F52"/>
<path d="M228.194 57.2739C228.384 57.1384 228.263 56.6445 227.924 56.1707C227.586 55.6968 227.157 55.4225 226.968 55.558C226.779 55.6935 226.899 56.1875 227.238 56.6613C227.577 57.1351 228.005 57.4094 228.194 57.2739Z" fill="#34194E"/>
<path d="M226.929 55.5866C227.118 55.4511 226.997 54.9571 226.659 54.4833C226.32 54.0094 225.892 53.7352 225.703 53.8706C225.513 54.0061 225.634 54.5001 225.973 54.9739C226.311 55.4478 226.739 55.722 226.929 55.5866Z" fill="#34194E"/>
</g>
<defs>
<clipPath id="clip0_703_16">
<rect width="357" height="210" fill="white"/>
</clipPath>
</defs>
</svg>
